<?xml version="1.0" encoding="UTF-8" standalone="no"?>
<svg
   xmlns:dc="http://purl.org/dc/elements/1.1/"
   xmlns:cc="http://creativecommons.org/ns#"
   xmlns:rdf="http://www.w3.org/1999/02/22-rdf-syntax-ns#"
   xmlns:svg="http://www.w3.org/2000/svg"
   xmlns="http://www.w3.org/2000/svg"
   height="40.799999"
   width="148.13853"
   xml:space="preserve"
   viewBox="0 0 148.13853 40.800001"
   y="0px"
   x="0px"
   id="Capa_1"
   version="1.1"><metadata
   id="metadata131"><rdf:RDF><cc:Work
       rdf:about=""><dc:format>image/svg+xml</dc:format><dc:type
         rdf:resource="http://purl.org/dc/dcmitype/StillImage" /></cc:Work></rdf:RDF></metadata><defs
   id="defs129" />
<style
   id="style2"
   type="text/css">
	.st0{fill:#00478B;}
	.st1{fill:#EAC600;}
</style>
<g
   transform="translate(-2.9614613,-3.4)"
   id="g124">
	<g
   id="g118">
		<g
   id="g74">
			<path
   style="fill:#00478b"
   id="path4"
   d="m 49.5,38.7 h 0.9 v 5.4 h -0.9 z"
   class="st0" />
			<path
   style="fill:#00478b"
   id="path6"
   d="M 51.1,38.7 H 52 l 0.6,2.5 v -2.5 h 0.8 v 5.4 h -0.9 l -0.6,-2.4 v 2.4 H 51 v -5.4 z"
   class="st0" />
			<path
   style="fill:#00478b"
   id="path8"
   d="m 54,39.8 c 0,-0.8 0.4,-1.2 1.2,-1.2 0.8,0 1.2,0.4 1.2,1.2 v 0.8 h -0.9 v -0.8 c 0,-0.2 -0.1,-0.3 -0.3,-0.3 v 0 c -0.2,0 -0.3,0.1 -0.3,0.3 v 0.5 c 0,0.2 0.2,0.5 0.7,0.8 0.5,0.3 0.7,0.8 0.7,1.3 V 43 c 0,0.8 -0.4,1.2 -1.2,1.2 -0.8,0 -1.2,-0.4 -1.2,-1.2 v -0.8 h 0.9 V 43 c 0,0.2 0.1,0.3 0.3,0.3 0.2,0 0.3,-0.1 0.3,-0.3 v -0.6 c 0,-0.2 -0.2,-0.5 -0.7,-0.9 C 54.2,41.2 54,40.7 54,40.2 Z"
   class="st0" />
			<path
   style="fill:#00478b"
   id="path10"
   d="m 57,38.7 h 1.2 c 0.7,0 1.1,0.4 1.1,1.2 v 0.8 c 0,0.6 -0.3,0.9 -0.8,1.1 -0.1,0 -0.3,0.1 -0.5,0.1 h -0.1 v 2.3 H 57 Z m 0.9,0.8 v 1.4 H 58 c 0.1,0 0.2,0 0.2,0 0.1,0 0.2,-0.1 0.2,-0.3 v -0.8 c 0,-0.2 -0.1,-0.3 -0.3,-0.3 z"
   class="st0" />
			<path
   style="fill:#00478b"
   id="path12"
   d="M 59.9,38.7 H 62 v 0.9 H 60.8 V 41 h 1 v 0.9 h -1 v 1.4 H 62 v 0.9 h -2.1 z"
   class="st0" />
			<path
   style="fill:#00478b"
   id="path14"
   d="m 64.9,43 c 0,0.8 -0.4,1.2 -1.2,1.2 -0.8,0 -1.2,-0.4 -1.2,-1.2 v -3.2 c 0,-0.8 0.4,-1.2 1.2,-1.2 0.8,0 1.2,0.4 1.2,1.2 v 0.8 H 64 v -0.8 c 0,-0.2 -0.1,-0.3 -0.3,-0.3 v 0 c -0.2,0 -0.3,0.1 -0.3,0.3 V 43 c 0,0.2 0.1,0.3 0.3,0.3 0.2,0 0.3,-0.1 0.3,-0.3 v -0.8 h 0.9 z"
   class="st0" />
			<path
   style="fill:#00478b"
   id="path16"
   d="m 67.7,38.7 v 0.9 H 67 v 4.5 h -0.9 v -4.5 h -0.7 v -0.9 z"
   class="st0" />
			<path
   style="fill:#00478b"
   id="path18"
   d="m 68.3,38.7 h 0.9 v 5.4 h -0.9 z"
   class="st0" />
			<path
   style="fill:#00478b"
   id="path20"
   d="m 72.2,43 c 0,0.8 -0.4,1.2 -1.2,1.2 -0.8,0 -1.2,-0.4 -1.2,-1.2 v -3.2 c 0,-0.8 0.4,-1.2 1.2,-1.2 0.8,0 1.2,0.4 1.2,1.2 z m -0.9,-3.2 c 0,-0.2 -0.1,-0.3 -0.3,-0.3 v 0 c -0.2,0 -0.3,0.1 -0.3,0.3 V 43 c 0,0.2 0.1,0.3 0.3,0.3 0.2,0 0.3,-0.1 0.3,-0.3 z"
   class="st0" />
			<path
   style="fill:#00478b"
   id="path22"
   d="m 72.8,38.7 h 0.9 l 0.6,2.5 v -2.5 h 0.8 v 5.4 h -0.9 l -0.6,-2.4 v 2.4 h -0.9 v -5.4 z"
   class="st0" />
			<path
   style="fill:#00478b"
   id="path24"
   d="m 75.8,39.8 c 0,-0.8 0.4,-1.2 1.2,-1.2 0.8,0 1.2,0.4 1.2,1.2 v 0.8 h -0.9 v -0.8 c 0,-0.2 -0.1,-0.3 -0.3,-0.3 v 0 c -0.2,0 -0.3,0.1 -0.3,0.3 v 0.5 c 0,0.2 0.2,0.5 0.7,0.8 0.5,0.3 0.7,0.8 0.7,1.3 V 43 c 0,0.8 -0.4,1.2 -1.2,1.2 -0.8,0 -1.2,-0.4 -1.2,-1.2 v -0.8 h 0.9 V 43 c 0,0.2 0.1,0.3 0.3,0.3 0.2,0 0.3,-0.1 0.3,-0.3 V 42.4 C 77.2,42.2 77,41.9 76.5,41.5 76,41.2 75.8,40.7 75.8,40.2 Z"
   class="st0" />
			<path
   style="fill:#00478b"
   id="path26"
   d="m 81.6,40.9 v -0.4 h 0.9 v 0.4 H 83 v 0.9 H 82.5 V 43 c 0,0.7 -0.3,1.1 -1,1.2 -0.1,0 -0.1,0 -0.2,0 -0.1,0 -0.2,0 -0.3,0 -0.6,-0.1 -0.9,-0.4 -0.9,-1.1 V 42 c 0,-0.4 0.1,-0.6 0.4,-0.7 -0.2,-0.1 -0.4,-0.4 -0.4,-0.7 v -0.8 c 0,-0.7 0.3,-1.1 0.9,-1.2 0.1,0 0.2,0 0.2,0 0.1,0 0.1,0 0.2,0 0.6,0 0.9,0.4 0.9,1.2 V 40 h -0.9 v -0.3 c 0,-0.2 0,-0.3 -0.1,-0.3 0,0 -0.1,0 -0.1,0 0,0 -0.1,0 -0.1,0 -0.1,0 -0.2,0.1 -0.2,0.3 v 0.8 c 0,0.1 0.1,0.2 0.2,0.3 0,0 0.1,0 0.1,0 h 0.4 z m -0.4,2.3 c 0,0 0.1,0 0.2,0 0,0 0,0 0.1,0 0.1,0 0.2,-0.1 0.2,-0.3 v -1.2 h -0.3 c 0,0 -0.1,0 -0.1,0 -0.1,0 -0.2,0.1 -0.2,0.3 v 0.9 c 0,0.2 0,0.3 0.1,0.3 z"
   class="st0" />
			<path
   style="fill:#00478b"
   id="path28"
   d="m 85,38.7 h 1.2 c 0.7,0 1.1,0.4 1.1,1.2 v 0.8 c 0,0.5 -0.2,0.8 -0.6,0.9 l 0.9,2.5 h -1 l -0.7,-2.3 v 0 2.3 H 85 Z m 0.9,0.8 v 1.4 H 86 c 0.1,0 0.2,0 0.2,0 0.1,0 0.2,-0.1 0.2,-0.3 v -0.8 c 0,-0.2 -0.1,-0.3 -0.3,-0.3 z"
   class="st0" />
			<path
   style="fill:#00478b"
   id="path30"
   d="m 88.1,38.7 h 2.1 v 0.9 H 89 V 41 h 1 v 0.9 h -1 v 1.4 h 1.2 v 0.9 h -2.1 z"
   class="st0" />
			<path
   style="fill:#00478b"
   id="path32"
   d="M 90.8,38.7 H 92 c 0.7,0 1.1,0.4 1.1,1.2 v 0.8 c 0,0.6 -0.3,0.9 -0.8,1.1 -0.1,0 -0.3,0.1 -0.5,0.1 h -0.1 v 2.3 h -0.9 z m 0.9,0.8 v 1.4 h 0.1 c 0.1,0 0.2,0 0.2,0 0.1,0 0.2,-0.1 0.2,-0.3 v -0.8 c 0,-0.2 -0.1,-0.3 -0.3,-0.3 z"
   class="st0" />
			<path
   style="fill:#00478b"
   id="path34"
   d="M 95.8,42.1 96.1,44 H 95.2 L 95,42.9 H 94.3 L 94.1,44 h -0.9 l 0.3,-1.9 0.5,-3.5 h 1.2 z m -0.9,0 -0.2,-1.6 -0.2,1.6 z"
   class="st0" />
			<path
   style="fill:#00478b"
   id="path36"
   d="m 96.7,38.7 h 0.9 v 5.4 h -0.9 z"
   class="st0" />
			<path
   style="fill:#00478b"
   id="path38"
   d="m 98.2,38.7 h 1.2 c 0.7,0 1.1,0.4 1.1,1.2 v 0.8 c 0,0.5 -0.2,0.8 -0.6,0.9 l 0.9,2.5 h -1 l -0.7,-2.3 v 0 2.3 h -0.9 z m 0.9,0.8 v 1.4 h 0.1 c 0.1,0 0.2,0 0.2,0 0.1,0 0.2,-0.1 0.2,-0.3 v -0.8 c 0,-0.2 -0.1,-0.3 -0.3,-0.3 z"
   class="st0" />
			<path
   style="fill:#00478b"
   id="path40"
   d="m 104.9,43 c 0,0.8 -0.4,1.2 -1.2,1.2 -0.8,0 -1.2,-0.4 -1.2,-1.2 v -3.2 c 0,-0.8 0.4,-1.2 1.2,-1.2 0.8,0 1.2,0.4 1.2,1.2 v 0.8 H 104 v -0.8 c 0,-0.2 -0.1,-0.3 -0.3,-0.3 v 0 c -0.2,0 -0.3,0.1 -0.3,0.3 V 43 c 0,0.2 0.1,0.3 0.3,0.3 0.2,0 0.3,-0.1 0.3,-0.3 v -0.8 h 0.9 z"
   class="st0" />
			<path
   style="fill:#00478b"
   id="path42"
   d="m 107.9,43 c 0,0.8 -0.4,1.2 -1.2,1.2 -0.8,0 -1.2,-0.4 -1.2,-1.2 v -3.2 c 0,-0.8 0.4,-1.2 1.2,-1.2 0.8,0 1.2,0.4 1.2,1.2 z M 107,39.8 c 0,-0.2 -0.1,-0.3 -0.3,-0.3 v 0 c -0.2,0 -0.3,0.1 -0.3,0.3 V 43 c 0,0.2 0.1,0.3 0.3,0.3 0.2,0 0.3,-0.1 0.3,-0.3 z"
   class="st0" />
			<path
   style="fill:#00478b"
   id="path44"
   d="m 108.5,38.7 h 0.9 l 0.6,2.5 v -2.5 h 0.8 v 5.4 h -0.9 l -0.6,-2.4 v 2.4 h -0.9 v -5.4 z"
   class="st0" />
			<path
   style="fill:#00478b"
   id="path46"
   d="m 113.7,38.7 v 0.9 H 113 v 4.5 h -0.9 v -4.5 h -0.7 v -0.9 z"
   class="st0" />
			<path
   style="fill:#00478b"
   id="path48"
   d="m 116.3,42.1 0.3,1.9 h -0.9 l -0.1,-1.1 h -0.7 l -0.2,1.1 h -0.9 l 0.3,-1.9 0.5,-3.5 h 1.2 z m -0.9,0 -0.2,-1.6 -0.2,1.6 z"
   class="st0" />
			<path
   style="fill:#00478b"
   id="path50"
   d="m 117.2,38.7 h 0.9 v 5.4 h -0.9 z"
   class="st0" />
			<path
   style="fill:#00478b"
   id="path52"
   d="m 118.7,38.7 h 0.9 l 0.6,2.5 v -2.5 h 0.8 v 5.4 h -0.9 l -0.6,-2.4 v 2.4 h -0.9 v -5.4 z"
   class="st0" />
			<path
   style="fill:#00478b"
   id="path54"
   d="m 121.7,38.7 h 2.1 v 0.9 h -1.2 V 41 h 1 v 0.9 h -1 v 1.4 h 1.2 v 0.9 h -2.1 z"
   class="st0" />
			<path
   style="fill:#00478b"
   id="path56"
   d="m 124.5,38.7 h 1.2 c 0.7,0 1.1,0.4 1.1,1.2 v 0.8 c 0,0.5 -0.2,0.8 -0.6,0.9 l 0.9,2.5 h -1 l -0.7,-2.3 v 0 2.3 h -0.9 z m 0.8,0.8 v 1.4 h 0.1 c 0.1,0 0.2,0 0.2,0 0.1,0 0.2,-0.1 0.2,-0.3 v -0.8 c 0,-0.2 -0.1,-0.3 -0.3,-0.3 z"
   class="st0" />
			<path
   style="fill:#00478b"
   id="path58"
   d="m 128.8,39.8 c 0,-0.8 0.4,-1.2 1.2,-1.2 0.8,0 1.2,0.4 1.2,1.2 v 0.8 h -0.9 v -0.8 c 0,-0.2 -0.1,-0.3 -0.3,-0.3 v 0 c -0.2,0 -0.3,0.1 -0.3,0.3 v 0.5 c 0,0.2 0.2,0.5 0.7,0.8 0.5,0.3 0.7,0.8 0.7,1.3 V 43 c 0,0.8 -0.4,1.2 -1.2,1.2 -0.8,0 -1.2,-0.4 -1.2,-1.2 v -0.8 h 0.9 V 43 c 0,0.2 0.1,0.3 0.3,0.3 0.2,0 0.3,-0.1 0.3,-0.3 v -0.6 c 0,-0.2 -0.2,-0.5 -0.7,-0.9 -0.5,-0.3 -0.7,-0.8 -0.7,-1.3 z"
   class="st0" />
			<path
   style="fill:#00478b"
   id="path60"
   d="m 131.8,38.7 h 2.1 v 0.9 h -1.2 V 41 h 1 v 0.9 h -1 v 1.4 h 1.2 v 0.9 h -2.1 z"
   class="st0" />
			<path
   style="fill:#00478b"
   id="path62"
   d="m 134.5,38.7 h 1.2 c 0.7,0 1.1,0.4 1.1,1.2 v 0.8 c 0,0.5 -0.2,0.8 -0.6,0.9 l 0.9,2.5 h -1 l -0.7,-2.3 v 0 2.3 h -0.9 z m 0.9,0.8 v 1.4 h 0.1 c 0.1,0 0.2,0 0.2,0 0.1,0 0.2,-0.1 0.2,-0.3 v -0.8 c 0,-0.2 -0.1,-0.3 -0.3,-0.3 z"
   class="st0" />
			<path
   style="fill:#00478b"
   id="path64"
   d="M 139.2,44.1 H 138 l -0.5,-3.5 -0.3,-1.9 h 0.9 l 0.5,3.6 0.5,-3.6 h 0.9 l -0.3,1.9 z"
   class="st0" />
			<path
   style="fill:#00478b"
   id="path66"
   d="m 140.6,38.7 h 0.9 v 5.4 h -0.9 z"
   class="st0" />
			<path
   style="fill:#00478b"
   id="path68"
   d="m 144.5,43 c 0,0.8 -0.4,1.2 -1.2,1.2 -0.8,0 -1.2,-0.4 -1.2,-1.2 v -3.2 c 0,-0.8 0.4,-1.2 1.2,-1.2 0.8,0 1.2,0.4 1.2,1.2 v 0.8 h -0.9 v -0.8 c 0,-0.2 -0.1,-0.3 -0.3,-0.3 v 0 c -0.2,0 -0.3,0.1 -0.3,0.3 V 43 c 0,0.2 0.1,0.3 0.3,0.3 0.2,0 0.3,-0.1 0.3,-0.3 v -0.8 h 0.9 z"
   class="st0" />
			<path
   style="fill:#00478b"
   id="path70"
   d="m 145.1,38.7 h 2.1 v 0.9 H 146 V 41 h 1 v 0.9 h -1 v 1.4 h 1.2 v 0.9 h -2.1 z"
   class="st0" />
			<path
   style="fill:#00478b"
   id="path72"
   d="m 147.8,39.8 c 0,-0.8 0.4,-1.2 1.2,-1.2 0.8,0 1.2,0.4 1.2,1.2 v 0.8 h -0.9 v -0.8 c 0,-0.2 -0.1,-0.3 -0.3,-0.3 v 0 c -0.2,0 -0.3,0.1 -0.3,0.3 v 0.5 c 0,0.2 0.2,0.5 0.7,0.8 0.5,0.3 0.7,0.8 0.7,1.3 V 43 c 0,0.8 -0.4,1.2 -1.2,1.2 -0.8,0 -1.2,-0.4 -1.2,-1.2 v -0.8 h 0.9 V 43 c 0,0.2 0.1,0.3 0.3,0.3 0.2,0 0.3,-0.1 0.3,-0.3 v -0.6 c 0,-0.2 -0.2,-0.5 -0.7,-0.9 -0.5,-0.3 -0.7,-0.8 -0.7,-1.3 z"
   class="st0" />
		</g>
		<g
   id="g104">
			<path
   style="fill:#eac600"
   id="path76"
   d="M 57.2,8 56.6,9.1 56.1,8.7 C 55.9,8.9 55.6,9 55.3,9 54.9,9.1 54.1,9.1 52.8,9.1 51.7,9.1 50.9,9.1 50.4,9 49.8,8.9 49.4,8.6 49.2,8.1 49.1,7.7 49.1,7.1 49.1,6.3 c 0,-0.8 0,-1.4 0.1,-1.8 0.1,-0.5 0.5,-0.8 1.2,-0.9 0.4,-0.1 1.2,-0.1 2.4,-0.1 1.2,0 2,0 2.4,0.1 0.6,0.1 1,0.4 1.2,0.9 0.1,0.2 0.1,0.5 0.1,0.8 0,0.3 0,0.6 0,1 0,0.5 0,0.9 0,1.2 z m -4,-2.4 1.7,1.1 c 0,-0.1 0,-0.1 0,-0.2 0,-0.4 0,-0.6 0,-0.8 C 54.9,5.4 54.8,5.2 54.6,5.2 54.5,5.1 54.3,5 53.9,5 53.8,5 53.4,5 52.9,5 52,5 51.5,5 51.3,5 51.1,5.1 50.9,5.2 50.9,5.4 50.8,5.6 50.8,6 50.8,6.5 c 0,0.3 0,0.6 0.1,0.7 0.1,0.3 0.3,0.4 0.6,0.5 0.2,0 0.7,0 1.5,0 0.7,0 1.1,0 1.4,-0.1 L 52.7,6.7 Z"
   class="st1" />
			<path
   style="fill:#eac600"
   id="path78"
   d="m 57.9,3.6 h 1.6 v 2.5 c 0,0.6 0,0.9 0.1,1.1 0.1,0.3 0.2,0.4 0.5,0.5 0.3,0 0.7,0.1 1.3,0.1 0.6,0 1,0 1.2,-0.1 0.3,-0.1 0.5,-0.3 0.6,-0.6 0,-0.3 0,-0.6 0,-1 V 3.6 H 65 v 2.5 c 0,0.9 0,1.4 -0.1,1.7 -0.1,0.4 -0.3,0.8 -0.6,1 -0.3,0.2 -0.8,0.3 -1.4,0.3 -0.3,0 -0.8,0 -1.4,0 -0.9,0 -1.6,0 -2,-0.1 C 59.2,9 59,9 58.8,8.9 58.6,8.8 58.5,8.7 58.4,8.6 58.2,8.4 58.1,8.2 58.1,7.9 58,7.6 58,7.2 58,6.8 V 6.1 3.6 Z"
   class="st1" />
			<path
   style="fill:#eac600"
   id="path80"
   d="M 71.9,9.1 71.4,8.2 h -3.6 l -0.5,0.9 h -1.9 l 2.9,-5.4 h 2.6 l 2.8,5.4 z M 70.8,7 69.8,5 h -0.3 l -1,2 z"
   class="st1" />
			<path
   style="fill:#eac600"
   id="path82"
   d="m 74.6,3.6 h 1.7 v 4 h 3.8 V 9 H 74.5 V 3.6 Z"
   class="st1" />
			<path
   style="fill:#eac600"
   id="path84"
   d="m 81,3.6 h 1.7 V 9 H 81 Z"
   class="st1" />
			<path
   style="fill:#eac600"
   id="path86"
   d="m 83.7,3.6 h 6.5 V 5 H 87.8 V 9 H 86.1 V 5 h -2.4 z"
   class="st1" />
			<path
   style="fill:#eac600"
   id="path88"
   d="M 90.9,3.6 H 93 l 1.8,2.2 1.7,-2.2 h 2.1 l -3,3.5 V 9 H 94 V 7.1 Z"
   class="st1" />
			<path
   style="fill:#eac600"
   id="path90"
   d="M 101.8,9.1 V 3.6 h 4 c 0.9,0 1.5,0 1.7,0 0.2,0 0.4,0.1 0.5,0.2 0.2,0.1 0.3,0.2 0.4,0.4 0.1,0.2 0.1,0.3 0.2,0.5 0,0.2 0,0.4 0,0.7 0,0.4 0,0.7 -0.1,0.9 -0.1,0.3 -0.3,0.4 -0.5,0.5 -0.1,0 -0.2,0.1 -0.4,0.1 0.3,0 0.6,0.1 0.7,0.3 0.1,0.1 0.1,0.2 0.1,0.3 0,0.1 0,0.2 0.1,0.4 0,0.1 0,0.3 0,0.6 V 9 h -1.6 V 8.8 c 0,-0.3 0,-0.6 0,-0.7 0,-0.2 -0.1,-0.3 -0.3,-0.4 -0.1,0 -0.4,0 -0.7,0 h -2.3 v 1.4 z m 1.7,-2.8 h 2.3 c 0.3,0 0.6,0 0.6,0 0.2,0 0.4,-0.1 0.4,-0.2 0,-0.1 0.1,-0.2 0.1,-0.5 0,-0.2 0,-0.3 -0.1,-0.4 -0.1,-0.1 -0.2,-0.2 -0.4,-0.2 -0.1,0 -0.3,0 -0.7,0 h -2.3 v 1.3 z"
   class="st1" />
			<path
   style="fill:#eac600"
   id="path92"
   d="m 109.6,3.6 h 6 v 1.3 h -4.4 v 0.8 h 4.1 v 1.2 h -4.1 v 0.9 h 4.4 v 1.3 h -6 z"
   class="st1" />
			<path
   style="fill:#eac600"
   id="path94"
   d="M 116.6,9.1 V 3.6 h 3.7 c 0.7,0 1.2,0 1.4,0 0.6,0.1 1,0.3 1.2,0.6 0.1,0.3 0.2,0.7 0.2,1.4 0,0.7 -0.1,1.1 -0.2,1.4 -0.1,0.3 -0.4,0.4 -0.7,0.5 -0.3,0.1 -0.6,0.1 -1,0.1 -0.2,0 -0.5,0 -0.8,0 h -2.1 v 1.3 h -1.7 z m 1.7,-2.7 h 2.1 c 0.3,0 0.5,0 0.6,0 0.2,0 0.4,-0.1 0.5,-0.2 0,-0.1 0.1,-0.2 0.1,-0.5 0,-0.2 0,-0.4 -0.1,-0.4 C 121.3,5.1 121.2,5 121,5 c -0.1,0 -0.3,0 -0.6,0 h -2.1 z"
   class="st1" />
			<path
   style="fill:#eac600"
   id="path96"
   d="m 129.6,9.1 -0.5,-0.9 h -3.6 L 125,9.1 h -1.9 L 126,3.7 h 2.6 l 2.8,5.4 z m -1,-2.1 -1,-2 h -0.3 l -1,2 z"
   class="st1" />
			<path
   style="fill:#eac600"
   id="path98"
   d="M 132.3,3.6 H 134 V 9 h -1.7 z"
   class="st1" />
			<path
   style="fill:#eac600"
   id="path100"
   d="M 135.2,9.1 V 3.6 h 4 c 0.9,0 1.5,0 1.7,0 0.2,0 0.4,0.1 0.5,0.2 0.2,0.1 0.3,0.2 0.4,0.4 0.1,0.2 0.1,0.3 0.2,0.5 0,0.2 0,0.4 0,0.7 0,0.4 0,0.7 -0.1,0.9 -0.1,0.3 -0.3,0.4 -0.5,0.5 -0.1,0 -0.2,0.1 -0.4,0.1 0.3,0 0.6,0.1 0.7,0.3 0.1,0.1 0.1,0.2 0.1,0.3 0,0.1 0,0.2 0.1,0.4 0,0.1 0,0.3 0,0.6 V 9 h -1.6 V 8.8 c 0,-0.3 0,-0.6 0,-0.7 0,-0.2 -0.1,-0.3 -0.3,-0.4 -0.1,0 -0.4,0 -0.7,0 H 137 v 1.4 z m 1.7,-2.8 h 2.3 c 0.3,0 0.6,0 0.6,0 0.2,0 0.4,-0.1 0.4,-0.2 0,-0.1 0.1,-0.2 0.1,-0.5 0,-0.2 0,-0.3 -0.1,-0.4 C 140.1,5.1 140,5 139.8,5 c -0.1,0 -0.3,0 -0.7,0 h -2.3 v 1.3 z"
   class="st1" />
			<path
   style="fill:#eac600"
   id="path102"
   d="m 142.8,7.3 h 1.6 c 0,0.3 0.1,0.4 0.2,0.5 0.1,0 0.1,0.1 0.2,0.1 0.1,0 0.2,0 0.4,0 0.1,0 0.4,0 0.9,0 0.7,0 1.1,0 1.2,0 0.2,0 0.3,0 0.4,-0.1 0.1,-0.1 0.1,-0.2 0.1,-0.4 0,-0.1 0,-0.2 -0.1,-0.3 0,-0.1 -0.2,-0.1 -0.5,-0.1 -0.2,0 -0.6,0 -1.3,0 -0.7,0 -1.1,-0.1 -1.3,-0.1 -0.5,0 -0.9,-0.1 -1.1,-0.2 C 143.2,6.6 143,6.3 143,6 c 0,-0.2 -0.1,-0.4 -0.1,-0.7 0,-0.6 0.1,-1 0.3,-1.3 0.2,-0.2 0.4,-0.3 0.8,-0.4 0.3,-0.1 1.1,-0.1 2.3,-0.1 0.8,0 1.3,0 1.7,0.1 0.4,0.1 0.7,0.2 0.9,0.3 0.3,0.2 0.4,0.6 0.4,1.1 0,0.1 0,0.2 0,0.3 h -1.6 c 0,-0.1 0,-0.2 0,-0.3 0,-0.1 -0.2,-0.2 -0.4,-0.2 -0.2,0 -0.6,0 -1.3,0 -0.7,0 -1.1,0 -1.2,0.1 -0.1,0 -0.2,0.2 -0.2,0.4 0,0.2 0.1,0.3 0.2,0.3 0.1,0 0.7,0.1 1.7,0.1 0.9,0 1.5,0.1 1.8,0.1 0.3,0 0.5,0.1 0.6,0.2 0.2,0.1 0.3,0.2 0.4,0.3 0.1,0.2 0.2,0.6 0.2,1 0,0.5 -0.1,0.9 -0.2,1.2 -0.1,0.2 -0.4,0.4 -0.7,0.5 -0.3,0.1 -1.2,0.1 -2.5,0.1 -0.8,0 -1.4,0 -1.8,-0.1 -0.5,-0.1 -0.8,-0.2 -1,-0.3 -0.2,-0.2 -0.3,-0.4 -0.4,-0.7 0,-0.1 0,-0.3 0,-0.5 V 7.3 Z"
   class="st1" />
		</g>
		<g
   id="g114">
			<path
   style="fill:#00478b"
   id="path106"
   d="m 49.2,11.8 h 7.1 V 34 h -7.1 z"
   class="st0" />
			<path
   style="fill:#00478b"
   id="path108"
   d="M 60.8,34 V 11.8 h 16.3 c 3.9,0 6.1,0 6.8,0.1 0.8,0.1 1.5,0.3 2.2,0.7 0.6,0.4 1.1,0.9 1.5,1.5 0.4,0.6 0.6,1.3 0.7,2 0.1,0.8 0.1,1.8 0.1,2.9 0,1.8 -0.1,3.1 -0.4,3.8 -0.4,1.1 -1.1,1.8 -2.1,2.2 -0.4,0.1 -0.9,0.3 -1.6,0.4 1.4,0.1 2.4,0.5 3.1,1.2 0.3,0.3 0.5,0.7 0.6,1.1 0.1,0.4 0.2,1 0.2,1.8 0,0.4 0,1.2 0,2.5 v 2 H 81.5 V 32.8 C 81.5,31.5 81.4,30.5 81.3,30 81.1,29.2 80.7,28.7 80,28.5 79.5,28.4 78.6,28.4 77.1,28.4 H 67.6 V 34 Z m 6.8,-11.2 h 9.5 c 1.4,0 2.3,0 2.5,-0.1 1,-0.1 1.6,-0.3 1.8,-0.9 0.2,-0.4 0.3,-1 0.3,-1.9 0,-0.8 -0.1,-1.3 -0.2,-1.7 -0.2,-0.5 -0.8,-0.8 -1.6,-0.9 -0.3,0 -1.2,0 -2.7,0 h -9.5 v 5.5 z"
   class="st0" />
			<path
   style="fill:#00478b"
   id="path110"
   d="m 113.5,25.5 h 6.8 c 0,1.1 0.1,1.8 0.1,2.2 0,1.6 -0.3,2.9 -0.8,3.9 -0.5,1 -1.5,1.7 -3,2.1 -1.6,0.4 -4.5,0.7 -8.5,0.7 -4.4,0 -7.4,-0.1 -9,-0.2 C 97.7,34.1 96.5,33.9 95.7,33.6 94.9,33.3 94.2,33 93.7,32.5 93,31.8 92.5,30.9 92.3,29.8 92.1,28.6 92,26.4 92,23.1 c 0,-3.2 0.1,-5.3 0.2,-6.4 0.2,-1.7 0.9,-2.9 1.9,-3.6 0.8,-0.6 2.1,-1 3.8,-1.2 1.8,-0.2 5.1,-0.4 9.8,-0.4 2.8,0 4.8,0.1 6,0.2 1.8,0.2 3.1,0.5 3.9,1 1,0.6 1.7,1.6 1.9,2.8 0.2,0.9 0.3,1.9 0.3,3 0,0.2 0,0.6 0,1.3 H 113 c 0,-0.5 0,-0.9 -0.1,-1.1 -0.1,-0.7 -0.4,-1.1 -0.9,-1.3 -0.8,-0.3 -2.9,-0.4 -6.3,-0.4 -2.3,0 -4,0.1 -4.8,0.2 -1.1,0.2 -1.8,0.7 -2,1.8 -0.2,0.8 -0.3,2.2 -0.3,4 0,1.9 0.1,3.2 0.3,4 0.3,0.9 1,1.5 2.1,1.6 1,0.1 2.6,0.2 5,0.2 2.6,0 4.4,-0.1 5.3,-0.2 0.9,-0.1 1.5,-0.4 1.7,-1 0.4,-0.4 0.5,-1.1 0.5,-2.1 z"
   class="st0" />
			<path
   style="fill:#00478b"
   id="path112"
   d="m 123.7,26.7 h 6.6 c 0,1.1 0.2,1.8 0.7,2.1 0.2,0.2 0.5,0.3 0.8,0.3 0.3,0.1 0.8,0.1 1.6,0.1 0.4,0 1.6,0 3.7,0 2.9,0 4.6,0 5,0 0.9,-0.1 1.4,-0.2 1.7,-0.3 0.4,-0.2 0.6,-0.8 0.6,-1.6 0,-0.6 -0.1,-1 -0.4,-1.2 -0.3,-0.3 -1.1,-0.5 -2.3,-0.5 -0.8,0 -2.6,-0.1 -5.3,-0.2 -2.8,-0.1 -4.6,-0.2 -5.4,-0.2 -2.1,-0.1 -3.7,-0.3 -4.5,-0.7 -1.1,-0.6 -1.9,-1.5 -2.2,-2.8 C 124.1,21 124,20 124,18.8 c 0,-2.5 0.5,-4.3 1.4,-5.3 0.7,-0.8 1.8,-1.3 3.3,-1.5 1.3,-0.2 4.4,-0.3 9.4,-0.3 3.2,0 5.5,0.1 6.8,0.3 1.7,0.2 3,0.7 3.8,1.3 1,0.9 1.6,2.4 1.6,4.6 0,0.2 0,0.6 0,1.1 h -6.6 c 0,-0.5 -0.1,-0.9 -0.1,-1.1 -0.2,-0.6 -0.7,-0.9 -1.5,-1 -0.7,-0.1 -2.6,-0.1 -5.5,-0.1 -2.9,0 -4.6,0.1 -5.1,0.2 -0.6,0.2 -0.9,0.7 -0.9,1.5 0,0.8 0.3,1.3 0.9,1.4 0.5,0.1 2.9,0.3 7.2,0.4 3.8,0.1 6.3,0.2 7.4,0.4 1.1,0.2 1.9,0.4 2.6,0.7 0.6,0.3 1.1,0.8 1.5,1.4 0.6,0.9 0.9,2.3 0.9,4.2 0,2.2 -0.3,3.8 -0.8,4.8 -0.6,1 -1.5,1.7 -2.8,2.1 -1.3,0.4 -4.7,0.6 -10.4,0.6 -3.4,0 -5.9,-0.1 -7.5,-0.3 -1.9,-0.2 -3.2,-0.6 -4,-1.3 -0.9,-0.7 -1.4,-1.6 -1.6,-2.8 -0.1,-0.6 -0.1,-1.3 -0.1,-2.1 v -1.3 z"
   class="st0" />
		</g>
		<rect
   style="fill:#00478b"
   id="rect116"
   height="0.89999998"
   width="101"
   class="st0"
   y="36.200001"
   x="49.099998" />
	</g>
	<path
   style="fill:#00478b"
   id="path120"
   d="m 43.5,14.6 -12,-4.8 c 0,0 -0.1,0 -0.1,0 0,0 0,0 0,0 0,0 0,0 -0.1,0 0,0 0,0 0,0 L 7.9,13.5 7.4,14.2 31,10.5 V 35 l -23.5,-3.8 0.2,0.7 23.6,3.7 c 0,0 0,0 0,0 0,0 0,0 0,0 0,0 0,0 0.1,0 0,0 0,0 0.1,0 l 12.1,-4.8 c 0.1,0 0.2,-0.2 0.2,-0.3 V 14.9 C 43.7,14.8 43.7,14.6 43.5,14.6 Z M 38.9,32 38.3,32.3 v -19 l 0.6,0.3 z"
   class="st0" />
	<path
   style="fill:#eac600"
   id="path122"
   d="m 35.4,34.8 c -3.3,3.3 -7.6,4.9 -11.9,4.9 -4.3,0 -8.7,-1.7 -12,-5 -6.6,-6.6 -6.6,-17.3 0,-23.9 3.3,-3.3 7.6,-5 12,-5 4.2,0 8.3,1.5 11.6,4.6 l 4.7,1.9 C 39.1,11.2 38.2,10.1 37.2,9.1 33.4,5.3 28.5,3.4 23.5,3.4 c -5,0 -9.9,1.9 -13.7,5.7 -7,7 -7.5,18 -1.6,25.6 L 3,39.9 v 0 c -0.2,0.2 0.4,1.1 1.3,2 0.9,0.9 1.8,1.5 2,1.3 v 0 0 L 11.5,38 c 3.5,2.7 7.7,4.1 11.9,4.1 5,0 9.9,-1.9 13.7,-5.7 1.1,-1.1 2,-2.2 2.8,-3.5 z"
   class="st1" />
</g>
</svg>