<svg enable-background="new 0 0 849.9 516.6" viewBox="0 0 849.9 516.6" xmlns="http://www.w3.org/2000/svg"><g fill="none" stroke="#000" stroke-miterlimit="10"><path d="m113.3 455.7v-271.7h483v89.7"/><path d="m343.3 294.7v-21.7h423v11.7"/><path d="m443.6 70v112.5"/><path d="m483.6 274v18.5"/><path d="m623.6 274v18.5"/></g><path d="m348.9 26h193v55h-193z" fill="#fdc036"/><text font-family="'ProximaNova-Black'" font-size="15" transform="translate(357.8869 50)">DIRECTORA EJECUTIVA</text><text font-family="'TrebuchetMS'" font-size="13" transform="translate(375.4084 69)">Rosita García Zambrano</text><path d="m348.9 106h193v55h-193z" fill="#fdc036"/><text font-family="'ProximaNova-Black'" font-size="15" transform="translate(373.8869 130)">GERENTE GENERAL</text><text font-family="'TrebuchetMS'" font-size="13" transform="translate(376.7219 149)">José Navarro Ahumada</text><path d="m18.9 196h193v55h-193z" fill="#fdc036"/><text font-family="'ProximaNova-Black'" font-size="15" transform="translate(50.8869 220)">ADMINISTRACIÓN</text><text font-family="'TrebuchetMS'" font-size="13" transform="translate(67.7175 239)">Miguel Améstica</text><path d="m18.9 276h193v55h-193z" fill="#fdc036"/><text font-family="'ProximaNova-Black'" font-size="15" transform="translate(70.8869 300)">ASISTENTE</text><text font-family="'TrebuchetMS'" font-size="13" transform="translate(67.6701 319)">José Luis Zuñiga</text><path d="m18.9 356h193v55h-193z" fill="#fdc036"/><text font-family="'ProximaNova-Black'" font-size="15" transform="translate(77.8869 380)">BODEGA</text><text font-family="'TrebuchetMS'" font-size="13" transform="translate(74.0334 399)">Alejandra Roa</text><path d="m18.9 436h193v55h-193z" fill="#fdc036"/><text font-family="'ProximaNova-Black'" font-size="15" transform="translate(61.8869 460)">TRANSPORTE</text><text font-family="'TrebuchetMS'" font-size="13" transform="translate(79.8254 479)">Luis Cariaga</text><path d="m498.9 196h193v55h-193z" fill="#fdc036"/><text font-family="'ProximaNova-Black'" font-size="15" transform="translate(507.8869 220)">DIRECTORA EJECUTIVA</text><text font-family="'TrebuchetMS'" font-size="13" transform="translate(525.4084 239)">Rosita García Zambrano</text><path d="m278.9 286h129.1v73h-129.1z" fill="#fdc036"/><text font-family="'ProximaNova-Black'" font-size="15" transform="translate(309.8869 310)">24/7/365</text><text transform="translate(300.821 329)"><tspan font-family="'TrebuchetMS'" font-size="13" x="0" y="0">Yerko Palacios</tspan><tspan font-family="'TrebuchetMS'" font-size="13" x="6.2" y="15.6">Gabriel Soto</tspan></text><path d="m418.9 286h129.1v73h-129.1z" fill="#fdc036"/><text transform="translate(434.9611 310)"><tspan font-family="'ProximaNova-Black'" font-size="15" x="0" y="0">SUPERVISOR</tspan><tspan font-family="'ProximaNova-Black'" font-size="15" x="-4.4" y="18">SAN ANTONIO</tspan></text><text font-family="'TrebuchetMS'" font-size="13" transform="translate(435.0285 346)">Cristián Ramírez</text><path d="m558.9 286h129.1v73h-129.1z" fill="#fdc036"/><text transform="translate(575.9611 310)"><tspan font-family="'ProximaNova-Black'" font-size="15" x="0" y="0">SUPERVISOR</tspan><tspan font-family="'ProximaNova-Black'" font-size="15" x="29.6" y="18">ZEAL</tspan></text><text font-family="'TrebuchetMS'" font-size="13" transform="translate(582.7507 348)">Marcos Muñoz</text><path d="m698.9 286h129.1v73h-129.1z" fill="#fdc036"/><text transform="translate(714.9611 310)"><tspan font-family="'ProximaNova-Black'" font-size="15" x="0" y="0">SUPERVISOR</tspan><tspan font-family="'ProximaNova-Black'" font-size="15" x="12.7" y="18">PLACILLA</tspan></text><text font-family="'TrebuchetMS'" font-size="13" transform="translate(714.3718 349)">Enrique Mercado</text></svg>