<?xml version="1.0" encoding="utf-8"?>
<!-- Generator: Adobe Illustrator 19.2.0, SVG Export Plug-In . SVG Version: 6.00 Build 0)  -->
<svg version="1.1" id="Capa_1" xmlns="http://www.w3.org/2000/svg" xmlns:xlink="http://www.w3.org/1999/xlink" x="0px" y="0px"
	 viewBox="0 0 1229.9 516.6" style="enable-background:new 0 0 1229.9 516.6;" xml:space="preserve">
<style type="text/css">
	.st0{fill:none;stroke:#000000;stroke-miterlimit:10;}
	.st1{fill:#FDC036;}
	.st2{font-family:'ProximaNova-Black';}
	.st3{font-size:15px;}
	.st4{font-family:'TrebuchetMS';}
	.st5{font-size:13px;}
</style>
<line class="st0" x1="735.1" y1="274" x2="735.1" y2="292.5"/>
<polyline class="st0" points="113.3,455.7 113.3,184 596.3,184 596.3,273.7 "/>
<polyline class="st0" points="316.3,294.7 316.3,273 1151.9,273 1151.9,284.7 "/>
<line class="st0" x1="443.6" y1="70" x2="443.6" y2="182.5"/>
<line class="st0" x1="456.6" y1="274" x2="456.6" y2="292.5"/>
<line class="st0" x1="596.6" y1="274" x2="596.6" y2="292.5"/>
<rect x="348.9" y="26" class="st1" width="193" height="55"/>
<text transform="matrix(1 0 0 1 363.8869 60)" class="st2 st3">DIRECTOR EJECUTIVO</text>
<rect x="348.9" y="106" class="st1" width="193" height="55"/>
<text transform="matrix(1 0 0 1 373.8869 130)" class="st2 st3">GERENTE GENERAL</text>
<text transform="matrix(1 0 0 1 376.7219 149)" class="st4 st5">José Navarro Ahumada</text>
<rect x="18.9" y="196" class="st1" width="193" height="55"/>
<text transform="matrix(1 0 0 1 50.8869 220)" class="st2 st3">ADMINISTRACIÓN</text>
<text transform="matrix(1 0 0 1 67.7175 239)" class="st4 st5">Miguel Améstica</text>
<rect x="18.9" y="276" class="st1" width="193" height="55"/>
<text transform="matrix(1 0 0 1 70.8869 300)" class="st2 st3">ASISTENTE</text>
<text transform="matrix(1 0 0 1 67.6701 319)" class="st4 st5">José Luis Zuñiga</text>
<rect x="18.9" y="356" class="st1" width="193" height="55"/>
<text transform="matrix(1 0 0 1 77.8869 380)" class="st2 st3">BODEGA</text>
<text transform="matrix(1 0 0 1 74.0334 399)" class="st4 st5">Alejandra Roa</text>
<rect x="18.9" y="436" class="st1" width="193" height="55"/>
<text transform="matrix(1 0 0 1 61.8869 460)" class="st2 st3">TRANSPORTE</text>
<text transform="matrix(1 0 0 1 79.8254 479)" class="st4 st5">Luis Cariaga</text>
<rect x="498.9" y="196" class="st1" width="193" height="55"/>
<text transform="matrix(1 0 0 1 547.3849 227.9996)" class="st2 st3">OPERACIONES</text>
<rect x="251.9" y="286" class="st1" width="129.1" height="73"/>
<text transform="matrix(1 0 0 1 282.8869 310)" class="st2 st3">24/7/365</text>
<text transform="matrix(1 0 0 1 273.821 329)"><tspan x="0" y="0" class="st4 st5">Yerko Palacios</tspan><tspan x="6.2" y="15.6" class="st4 st5">Gabriel Soto</tspan></text>
<rect x="391.9" y="286" class="st1" width="129.1" height="73"/>
<text transform="matrix(1 0 0 1 407.9611 310)"><tspan x="0" y="0" class="st2 st3">SUPERVISOR</tspan><tspan x="-4.4" y="18" class="st2 st3">SAN ANTONIO</tspan></text>
<text transform="matrix(1 0 0 1 408.0285 346)" class="st4 st5">Cristián Ramírez</text>
<rect x="531.9" y="286" class="st1" width="129.1" height="73"/>
<text transform="matrix(1 0 0 1 555.2082 310)" class="st2 st3">CONTOPSA</text>
<text transform="matrix(1 0 0 1 556.7189 328)" class="st4 st5">(San Antonio)</text>
<rect x="671.9" y="286" class="st1" width="129.1" height="73"/>
<text transform="matrix(1 0 0 1 687.9611 310)"><tspan x="0" y="0" class="st2 st3">SUPERVISOR</tspan><tspan x="12.7" y="18" class="st2 st3">PLACILLA</tspan></text>
<text transform="matrix(1 0 0 1 687.3718 349)" class="st4 st5">Enrique Mercado</text>
<line class="st0" x1="875.1" y1="274" x2="875.1" y2="292.5"/>
<line class="st0" x1="1015.1" y1="274" x2="1015.1" y2="292.5"/>
<rect x="810.4" y="286" class="st1" width="129.1" height="73"/>
<text transform="matrix(1 0 0 1 826.4402 310)"><tspan x="0" y="0" class="st2 st3">SUPERVISOR</tspan><tspan x="29.6" y="18" class="st2 st3">ZEAL</tspan></text>
<text transform="matrix(1 0 0 1 834.2298 346)" class="st4 st5">Marcos Muñoz</text>
<rect x="950.4" y="286" class="st1" width="129.1" height="73"/>
<text transform="matrix(1 0 0 1 997.8211 310)"><tspan x="0" y="0" class="st2 st3">D&amp;C </tspan><tspan x="-21.3" y="18" class="st2 st3">SANTIAGO</tspan></text>
<text transform="matrix(1 0 0 1 995.5994 348)" class="st4 st5">(Enea)</text>
<rect x="1090.4" y="286" class="st1" width="129.1" height="73"/>
<text transform="matrix(1 0 0 1 1109.5199 310)" class="st2 st3">D&amp;C Logistic</text>
<text transform="matrix(1 0 0 1 1111.1893 329)" class="st4 st5">(San Bernardo)</text>
</svg>
